<svg id="visual" viewBox="0 0 960 540" width="960" height="540" xmlns="http://www.w3.org/2000/svg" xmlns:xlink="http://www.w3.org/1999/xlink" version="1.1"><g stroke-width="1" stroke-linejoin="bevel"><path d="M418.7 266L403.7 212L324 246Z" fill="#eeebff" stroke="#eeebff"></path><path d="M324 246L389.7 341L418.7 266Z" fill="#ffffff" stroke="#ffffff"></path><path d="M403.7 212L313 156L324 246Z" fill="#e6e1ff" stroke="#e6e1ff"></path><path d="M219.3 294L283 347L324 246Z" fill="#fbfaff" stroke="#fbfaff"></path><path d="M324 246L283 347L389.7 341Z" fill="#fbfaff" stroke="#fbfaff"></path><path d="M542.3 159L417.7 102L403.7 212Z" fill="#f7f5ff" stroke="#f7f5ff"></path><path d="M403.7 212L417.7 102L313 156Z" fill="#f2f0ff" stroke="#f2f0ff"></path><path d="M220.3 167L219.3 294L324 246Z" fill="#e2dcff" stroke="#e2dcff"></path><path d="M389.7 341L515.3 327L418.7 266Z" fill="#fbfaff" stroke="#fbfaff"></path><path d="M418.7 266L542.3 159L403.7 212Z" fill="#f7f5ff" stroke="#f7f5ff"></path><path d="M311 66L220.3 167L313 156Z" fill="#f7f5ff" stroke="#f7f5ff"></path><path d="M313 156L220.3 167L324 246Z" fill="#fbfaff" stroke="#fbfaff"></path><path d="M239.3 477L321 417L283 347Z" fill="#e6e1ff" stroke="#e6e1ff"></path><path d="M283 347L321 417L389.7 341Z" fill="#fbfaff" stroke="#fbfaff"></path><path d="M389.7 341L390.7 457L515.3 327Z" fill="#e6e1ff" stroke="#e6e1ff"></path><path d="M515.3 327L544.3 299L418.7 266Z" fill="#d9d3ff" stroke="#d9d3ff"></path><path d="M544.3 299L542.3 159L418.7 266Z" fill="#ffffff" stroke="#ffffff"></path><path d="M417.7 102L311 66L313 156Z" fill="#e6e1ff" stroke="#e6e1ff"></path><path d="M321 417L390.7 457L389.7 341Z" fill="#ddd8ff" stroke="#ddd8ff"></path><path d="M624 383L602 281L544.3 299Z" fill="#fbfaff" stroke="#fbfaff"></path><path d="M542.3 159L517.3 98L417.7 102Z" fill="#d9d3ff" stroke="#d9d3ff"></path><path d="M417.7 102L418.7 0L311 66Z" fill="#ddd8ff" stroke="#ddd8ff"></path><path d="M91.7 252L187.3 355L219.3 294Z" fill="#eae6ff" stroke="#eae6ff"></path><path d="M219.3 294L187.3 355L283 347Z" fill="#fbfaff" stroke="#fbfaff"></path><path d="M321 417L353 540L390.7 457Z" fill="#eae6ff" stroke="#eae6ff"></path><path d="M624 383L544.3 299L515.3 327Z" fill="#d5ceff" stroke="#d5ceff"></path><path d="M544.3 299L602 281L542.3 159Z" fill="#d5ceff" stroke="#d5ceff"></path><path d="M542.3 159L614 106L517.3 98Z" fill="#f2f0ff" stroke="#f2f0ff"></path><path d="M517.3 98L418.7 0L417.7 102Z" fill="#d5ceff" stroke="#d5ceff"></path><path d="M418.7 0L300 0L311 66Z" fill="#f7f5ff" stroke="#f7f5ff"></path><path d="M311 66L183.3 62L220.3 167Z" fill="#eeebff" stroke="#eeebff"></path><path d="M187.3 355L239.3 477L283 347Z" fill="#eae6ff" stroke="#eae6ff"></path><path d="M240.3 0L183.3 62L311 66Z" fill="#e6e1ff" stroke="#e6e1ff"></path><path d="M220.3 167L91.7 252L219.3 294Z" fill="#fbfaff" stroke="#fbfaff"></path><path d="M602 281L650 207L542.3 159Z" fill="#eeebff" stroke="#eeebff"></path><path d="M517.3 98L527.3 0L418.7 0Z" fill="#d9d3ff" stroke="#d9d3ff"></path><path d="M650 207L614 106L542.3 159Z" fill="#fbfaff" stroke="#fbfaff"></path><path d="M86.7 197L91.7 252L220.3 167Z" fill="#fbfaff" stroke="#fbfaff"></path><path d="M187.3 355L114.7 384L239.3 477Z" fill="#ddd8ff" stroke="#ddd8ff"></path><path d="M300 0L240.3 0L311 66Z" fill="#f7f5ff" stroke="#f7f5ff"></path><path d="M571.3 457L624 383L515.3 327Z" fill="#e2dcff" stroke="#e2dcff"></path><path d="M602 281L719.7 265L650 207Z" fill="#eeebff" stroke="#eeebff"></path><path d="M390.7 457L571.3 457L515.3 327Z" fill="#d5ceff" stroke="#d5ceff"></path><path d="M416.7 540L571.3 457L390.7 457Z" fill="#f7f5ff" stroke="#f7f5ff"></path><path d="M108.7 109L86.7 197L220.3 167Z" fill="#e6e1ff" stroke="#e6e1ff"></path><path d="M91.7 252L114.7 384L187.3 355Z" fill="#fbfaff" stroke="#fbfaff"></path><path d="M239.3 477L353 540L321 417Z" fill="#f2f0ff" stroke="#f2f0ff"></path><path d="M353 540L416.7 540L390.7 457Z" fill="#e6e1ff" stroke="#e6e1ff"></path><path d="M614 106L527.3 0L517.3 98Z" fill="#fbfaff" stroke="#fbfaff"></path><path d="M183.3 62L108.7 109L220.3 167Z" fill="#ffffff" stroke="#ffffff"></path><path d="M114.7 0L108.7 109L183.3 62Z" fill="#eeebff" stroke="#eeebff"></path><path d="M551.3 540L606 474L571.3 457Z" fill="#f2f0ff" stroke="#f2f0ff"></path><path d="M571.3 457L606 474L624 383Z" fill="#d9d3ff" stroke="#d9d3ff"></path><path d="M416.7 540L551.3 540L571.3 457Z" fill="#eae6ff" stroke="#eae6ff"></path><path d="M78.7 442L190.3 540L239.3 477Z" fill="#eeebff" stroke="#eeebff"></path><path d="M239.3 477L190.3 540L353 540Z" fill="#ffffff" stroke="#ffffff"></path><path d="M711.7 334L719.7 265L602 281Z" fill="#ffffff" stroke="#ffffff"></path><path d="M749.7 124L664 0L614 106Z" fill="#ffffff" stroke="#ffffff"></path><path d="M711.7 334L602 281L624 383Z" fill="#fbfaff" stroke="#fbfaff"></path><path d="M747.7 418L711.7 334L624 383Z" fill="#ffffff" stroke="#ffffff"></path><path d="M0 379L78.7 442L114.7 384Z" fill="#e2dcff" stroke="#e2dcff"></path><path d="M114.7 384L78.7 442L239.3 477Z" fill="#d5ceff" stroke="#d5ceff"></path><path d="M0 295L114.7 384L91.7 252Z" fill="#f2f0ff" stroke="#f2f0ff"></path><path d="M240.3 0L114.7 0L183.3 62Z" fill="#ffffff" stroke="#ffffff"></path><path d="M0 168L91.7 252L86.7 197Z" fill="#d5ceff" stroke="#d5ceff"></path><path d="M0 168L0 295L91.7 252Z" fill="#eae6ff" stroke="#eae6ff"></path><path d="M0 168L86.7 197L0 118Z" fill="#d9d3ff" stroke="#d9d3ff"></path><path d="M0 118L86.7 197L108.7 109Z" fill="#eeebff" stroke="#eeebff"></path><path d="M749.7 124L614 106L650 207Z" fill="#f7f5ff" stroke="#f7f5ff"></path><path d="M614 106L664 0L527.3 0Z" fill="#d5ceff" stroke="#d5ceff"></path><path d="M826.3 326L751.7 179L719.7 265Z" fill="#ddd8ff" stroke="#ddd8ff"></path><path d="M719.7 265L751.7 179L650 207Z" fill="#eeebff" stroke="#eeebff"></path><path d="M0 295L0 379L114.7 384Z" fill="#e2dcff" stroke="#e2dcff"></path><path d="M78.7 442L103.7 540L190.3 540Z" fill="#f7f5ff" stroke="#f7f5ff"></path><path d="M0 0L0 118L108.7 109Z" fill="#d5ceff" stroke="#d5ceff"></path><path d="M0 540L103.7 540L78.7 442Z" fill="#eeebff" stroke="#eeebff"></path><path d="M751.7 179L749.7 124L650 207Z" fill="#ffffff" stroke="#ffffff"></path><path d="M551.3 540L655 540L606 474Z" fill="#d5ceff" stroke="#d5ceff"></path><path d="M606 474L747.7 418L624 383Z" fill="#ddd8ff" stroke="#ddd8ff"></path><path d="M655 540L747.7 418L606 474Z" fill="#fbfaff" stroke="#fbfaff"></path><path d="M711.7 334L826.3 326L719.7 265Z" fill="#f2f0ff" stroke="#f2f0ff"></path><path d="M0 379L0 426L78.7 442Z" fill="#eeebff" stroke="#eeebff"></path><path d="M749.7 124L741.7 0L664 0Z" fill="#fbfaff" stroke="#fbfaff"></path><path d="M114.7 0L0 0L108.7 109Z" fill="#f2f0ff" stroke="#f2f0ff"></path><path d="M655 540L715.7 540L747.7 418Z" fill="#eae6ff" stroke="#eae6ff"></path><path d="M747.7 418L826.3 326L711.7 334Z" fill="#f7f5ff" stroke="#f7f5ff"></path><path d="M751.7 179L834.3 102L749.7 124Z" fill="#d9d3ff" stroke="#d9d3ff"></path><path d="M749.7 124L814.3 0L741.7 0Z" fill="#f7f5ff" stroke="#f7f5ff"></path><path d="M815.3 482L826.3 326L747.7 418Z" fill="#eae6ff" stroke="#eae6ff"></path><path d="M0 426L0 540L78.7 442Z" fill="#f7f5ff" stroke="#f7f5ff"></path><path d="M886.3 142L834.3 102L751.7 179Z" fill="#eeebff" stroke="#eeebff"></path><path d="M715.7 540L815.3 482L747.7 418Z" fill="#d5ceff" stroke="#d5ceff"></path><path d="M834.3 102L814.3 0L749.7 124Z" fill="#eeebff" stroke="#eeebff"></path><path d="M960 385L883.3 299L826.3 326Z" fill="#ffffff" stroke="#ffffff"></path><path d="M826.3 326L883.3 299L751.7 179Z" fill="#ddd8ff" stroke="#ddd8ff"></path><path d="M834.3 102L960 0L814.3 0Z" fill="#d5ceff" stroke="#d5ceff"></path><path d="M883.3 299L886.3 142L751.7 179Z" fill="#f2f0ff" stroke="#f2f0ff"></path><path d="M715.7 540L876.3 540L815.3 482Z" fill="#eae6ff" stroke="#eae6ff"></path><path d="M815.3 482L960 385L826.3 326Z" fill="#fbfaff" stroke="#fbfaff"></path><path d="M960 385L960 270L883.3 299Z" fill="#d5ceff" stroke="#d5ceff"></path><path d="M883.3 299L960 270L886.3 142Z" fill="#eae6ff" stroke="#eae6ff"></path><path d="M886.3 142L960 79L834.3 102Z" fill="#ddd8ff" stroke="#ddd8ff"></path><path d="M960 270L960 162L886.3 142Z" fill="#e6e1ff" stroke="#e6e1ff"></path><path d="M960 486L960 385L815.3 482Z" fill="#ffffff" stroke="#ffffff"></path><path d="M960 162L960 79L886.3 142Z" fill="#e2dcff" stroke="#e2dcff"></path><path d="M876.3 540L960 486L815.3 482Z" fill="#d9d3ff" stroke="#d9d3ff"></path><path d="M960 79L960 0L834.3 102Z" fill="#e6e1ff" stroke="#e6e1ff"></path><path d="M876.3 540L960 540L960 486Z" fill="#d5ceff" stroke="#d5ceff"></path></g></svg>